<svg width="562" height="150" viewBox="0 0 562 150" fill="none" xmlns="http://www.w3.org/2000/svg">
<path d="M26.9287 149.923C21.5833 149.923 17.3978 147.957 14.3721 144.023C11.4472 140.09 9.9848 134.795 9.9848 128.138V94.4017C9.9848 91.0735 9.43009 88.5521 8.32067 86.8375C7.21124 85.0221 5.90011 83.7614 4.38726 83.0554C2.87441 82.2485 1.41199 81.7947 0 81.6938V68.0782C1.41199 67.9773 2.87441 67.5739 4.38726 66.8679C5.90011 66.1619 7.21124 64.9012 8.32067 63.0858C9.43009 61.2704 9.9848 58.7489 9.9848 55.5215V21.785C9.9848 15.1285 11.4472 9.83352 14.3721 5.90011C17.3978 1.9667 21.5833 0 26.9287 0H39.7879V13.1618H34.0391C31.316 13.1618 29.551 14.1199 28.7441 16.0362C28.0381 17.9525 27.6851 20.02 27.6851 22.2389V55.8241C27.6851 61.1695 26.6766 65.2038 24.6594 67.9269C22.7432 70.65 20.1209 72.8689 16.7926 74.5834V75.3399C20.1209 77.0544 22.7432 79.2733 24.6594 81.9964C26.6766 84.6187 27.6851 88.6529 27.6851 94.0992V127.684C27.6851 129.903 28.0381 131.971 28.7441 133.887C29.551 135.803 31.316 136.762 34.0391 136.762H39.7879V149.923H26.9287Z" fill="black"/>
<path d="M99.5265 113.766C96.1982 113.766 92.8196 113.111 89.3904 111.799C86.0622 110.488 83.0365 108.118 80.3133 104.689C77.6911 101.159 75.7244 96.1667 74.4132 89.7119L78.9518 93.0402V112.253H58.377V6.80782H78.9518V57.1857L75.0184 59.3037C75.9261 53.7565 77.5902 49.3189 80.0108 45.9906C82.4313 42.5615 85.3562 40.0905 88.7853 38.5776C92.2144 36.9639 95.7948 36.1571 99.5265 36.1571C105.275 36.1571 110.469 37.6699 115.109 40.6956C119.849 43.7213 123.631 48.1086 126.455 53.8574C129.279 59.6062 130.691 66.6158 130.691 74.886C130.691 82.3494 129.43 89.0059 126.909 94.8556C124.489 100.705 120.959 105.345 116.319 108.774C111.68 112.102 106.082 113.766 99.5265 113.766ZM93.4751 94.7043C96.8034 94.7043 99.6778 93.9479 102.098 92.435C104.62 90.8213 106.536 88.5521 107.847 85.6272C109.158 82.6015 109.814 79.0211 109.814 74.886C109.814 70.7509 109.158 67.2209 107.847 64.2961C106.536 61.3712 104.62 59.1019 102.098 57.4882C99.6778 55.8745 96.8034 55.0677 93.4751 55.0677C90.1469 55.0677 87.222 55.925 84.7006 57.6395C82.28 59.2532 80.4142 61.5225 79.1031 64.4473C77.7919 67.3722 77.1364 70.8517 77.1364 74.886C77.1364 78.9203 77.7919 82.4502 79.1031 85.4759C80.4142 88.4008 82.28 90.6701 84.7006 92.2838C87.222 93.8975 90.1469 94.7043 93.4751 94.7043Z" fill="black"/>
<path d="M151.464 112.253V37.6699H172.342V57.9421L169.467 58.0934C169.77 53.8574 170.98 50.0753 173.098 46.747C175.317 43.4188 178.091 40.8469 181.419 39.0315C184.747 37.1152 188.176 36.1571 191.706 36.1571C194.228 36.1571 196.648 36.5101 198.968 37.2161C201.288 37.9221 203.759 39.0819 206.381 40.6956L196.396 59.4549C195.287 58.7489 193.824 58.1438 192.009 57.6395C190.294 57.0344 188.529 56.7318 186.714 56.7318C184.898 56.7318 183.133 57.0848 181.419 57.7908C179.704 58.4968 178.191 59.5558 176.88 60.9678C175.569 62.2789 174.51 64.0439 173.703 66.2628C173.199 67.6748 172.796 69.4902 172.493 71.709C172.291 73.827 172.191 77.004 172.191 81.24V112.253H151.464Z" fill="black"/>
<path d="M229.318 143.115L244.749 105.899L216.913 37.6699H239.606L255.793 85.1734L272.283 37.6699H294.673L251.708 143.115H229.318Z" fill="black"/>
<path d="M313.442 144.628C311.324 144.628 309.004 144.427 306.483 144.023C304.062 143.62 301.743 143.065 299.524 142.359V124.356C300.734 124.659 301.894 124.86 303.003 124.961C304.113 125.163 305.021 125.264 305.727 125.264C307.744 125.264 309.257 124.86 310.265 124.054C311.375 123.247 311.929 121.482 311.929 118.759V37.6699H332.655V124.507C332.655 131.467 330.89 136.56 327.36 139.787C323.83 143.015 319.191 144.628 313.442 144.628ZM311.627 26.7774V6.80782H333.26V26.7774H311.627Z" fill="black"/>
<path d="M404.206 112.253L402.693 102.269V65.0525C402.693 61.0182 401.331 58.0934 398.608 56.278C395.986 54.4625 392.557 53.5548 388.321 53.5548C384.388 53.5548 380.252 54.3113 375.916 55.8241C371.68 57.337 368.049 59.3037 365.023 61.7242L355.341 47.3522C360.989 43.217 366.586 40.3426 372.133 38.7289C377.681 37.0144 383.682 36.1571 390.136 36.1571C400.525 36.1571 408.644 38.7289 414.493 43.8726C420.343 49.0163 423.268 56.0762 423.268 65.0525V112.253H404.206ZM382.572 113.766C377.126 113.766 372.234 112.758 367.898 110.741C363.561 108.723 360.132 105.849 357.61 102.117C355.089 98.2847 353.828 93.8975 353.828 88.9555C353.828 84.6187 354.736 80.887 356.551 77.7604C358.367 74.6339 360.787 72.2133 363.813 70.4987C366.233 69.0867 368.957 68.0782 371.982 67.473C375.008 66.8679 378.185 66.5653 381.513 66.5653H404.357V81.8451H384.539C383.127 81.8451 381.816 81.9964 380.605 82.299C379.395 82.5007 378.286 82.9545 377.277 83.6605C376.47 84.2657 375.815 85.0221 375.31 85.9298C374.907 86.8375 374.705 87.8461 374.705 88.9555C374.705 91.4769 375.663 93.494 377.58 95.0069C379.597 96.4189 382.27 97.1249 385.598 97.1249C388.724 97.1249 391.548 96.4693 394.07 95.1582C396.692 93.847 398.76 92.0316 400.272 89.7119C401.886 87.3922 402.693 84.7699 402.693 81.8451L407.534 93.1915C405.92 98.436 403.752 102.571 401.029 105.597C398.407 108.522 395.482 110.64 392.254 111.951C389.128 113.161 385.9 113.766 382.572 113.766Z" fill="black"/>
<path d="M453.956 149.923H440.946V136.762H446.846C449.468 136.762 451.132 135.803 451.838 133.887C452.645 131.971 453.048 129.903 453.048 127.684V94.0992C453.048 88.6529 454.057 84.6187 456.074 81.9964C458.091 79.2733 460.714 77.0544 463.941 75.3399V74.5834C460.714 72.8689 458.091 70.65 456.074 67.9269C454.057 65.2038 453.048 61.1695 453.048 55.8241V22.2389C453.048 20.02 452.645 17.9525 451.838 16.0362C451.132 14.1199 449.468 13.1618 446.846 13.1618H440.946V0H453.956C459.302 0 463.437 1.9667 466.362 5.90011C469.286 9.83352 470.749 15.1285 470.749 21.785V55.5215C470.749 58.7489 471.303 61.2704 472.413 63.0858C473.522 64.9012 474.884 66.1619 476.498 66.8679C478.111 67.5739 479.574 67.9773 480.885 68.0782V81.6938C479.574 81.7947 478.111 82.2485 476.498 83.0554C474.884 83.7614 473.522 85.0221 472.413 86.8375C471.303 88.5521 470.749 91.0735 470.749 94.4017V128.138C470.749 134.795 469.286 140.09 466.362 144.023C463.437 147.957 459.302 149.923 453.956 149.923Z" fill="black"/>
<path d="M496.902 127.987V112.253H561.349V127.987H496.902Z" fill="black"/>
</svg>
